<svg width="21" height="21" viewBox="0 0 21 21" fill="none" xmlns="http://www.w3.org/2000/svg">
<path d="M14.3174 10.1555C15.2027 9.21506 15.75 7.95309 15.75 6.5625C15.75 3.66778 13.3947 1.3125 10.5 1.3125C7.60528 1.3125 5.25 3.66778 5.25 6.5625C5.25 7.95309 5.79731 9.21506 6.68259 10.1555C4.05891 11.6196 2.625 14.721 2.625 19.0312C2.625 19.3942 2.919 19.6875 3.28125 19.6875H17.7188C18.0817 19.6875 18.375 19.3942 18.375 19.0312C18.375 14.7203 16.9411 11.6196 14.3174 10.1555ZM10.5 2.625C12.6715 2.625 14.4375 4.39097 14.4375 6.5625C14.4375 8.73403 12.6715 10.5 10.5 10.5C8.32847 10.5 6.5625 8.73403 6.5625 6.5625C6.5625 4.39097 8.32847 2.625 10.5 2.625ZM3.94931 18.375C4.05234 15.5964 4.86019 12.3421 7.81003 11.0624C8.59753 11.5356 9.51628 11.8125 10.5 11.8125C11.4837 11.8125 12.4025 11.5356 13.19 11.0624C16.1392 12.3414 16.9477 15.5964 17.05 18.375H3.94931Z" fill="#1BD0E0"/>
</svg>
