<svg width="22" height="22" viewBox="0 0 22 22" fill="none" xmlns="http://www.w3.org/2000/svg">
<g clip-path="url(#clip0_1_1157)">
<path d="M17.7031 15.1078C18.2961 15.1078 18.7773 14.6266 18.7773 14.0336V3.66523C18.7773 1.6457 17.1316 0 15.1121 0H6.88789C4.86836 0 3.22266 1.6457 3.22266 3.66523V18.3391C3.22266 20.3586 4.86836 22.0043 6.88789 22.0043H15.1164C17.1359 22.0043 18.7816 20.3586 18.7816 18.3391C18.7816 17.7461 18.3004 17.2648 17.7074 17.2648C17.1145 17.2648 16.6332 17.7461 16.6332 18.3391C16.6332 19.1727 15.9543 19.8559 15.1164 19.8559H6.88789C6.0543 19.8559 5.37109 19.177 5.37109 18.3391V3.66523C5.37109 2.83164 6.05 2.14844 6.88789 2.14844H15.1164C15.95 2.14844 16.6332 2.82734 16.6332 3.66523V14.0336C16.6289 14.6266 17.1102 15.1078 17.7031 15.1078Z" fill="#1BD0E0"/>
<path d="M9.67657 15.6536C9.08361 15.6536 8.60236 16.1348 8.60236 16.7278C8.60236 17.3208 9.08361 17.802 9.67657 17.802H12.3234C12.9164 17.802 13.3977 17.3208 13.3977 16.7278C13.3977 16.1348 12.9164 15.6536 12.3234 15.6536H9.67657Z" fill="#1BD0E0"/>
</g>
<defs>
<clipPath id="clip0_1_1157">
<rect width="22" height="22" fill="white"/>
</clipPath>
</defs>
</svg>
