<svg width="8" height="8" viewBox="0 0 8 8" fill="none" xmlns="http://www.w3.org/2000/svg">
<path d="M3.72601 6.52296C3.75659 6.56737 3.79751 6.60369 3.84524 6.62878C3.89297 6.65386 3.94609 6.66697 4.00001 6.66697C4.05393 6.66697 4.10705 6.65386 4.15478 6.62878C4.20251 6.60369 4.24343 6.56737 4.27401 6.52296L7.27401 2.18963C7.30873 2.13965 7.3291 2.0811 7.33289 2.02036C7.33668 1.95962 7.32375 1.899 7.29551 1.84509C7.26726 1.79118 7.22478 1.74604 7.17269 1.71458C7.12059 1.68312 7.06087 1.66653 7.00001 1.66663H1.00001C0.939291 1.66688 0.879789 1.68368 0.827903 1.71521C0.776017 1.74675 0.73371 1.79184 0.705532 1.84562C0.677354 1.89941 0.664371 1.95986 0.667979 2.02047C0.671587 2.08108 0.69165 2.13956 0.726009 2.18963L3.72601 6.52296Z" fill="black"/>
</svg>
