<svg width="24" height="24" viewBox="0 0 24 24" fill="none" xmlns="http://www.w3.org/2000/svg">
<g clip-path="url(#clip0_1_964)">
<path d="M12.0007 4.52898C14.3497 2.41998 17.9797 2.48998 20.2427 4.75698C22.5047 7.02498 22.5827 10.637 20.4787 12.993L11.9987 21.485L3.52067 12.993C1.41667 10.637 1.49567 7.01898 3.75667 4.75698C6.02167 2.49298 9.64467 2.41698 12.0007 4.52898ZM18.8267 6.16998C17.3267 4.66798 14.9067 4.60698 13.3367 6.01698L12.0017 7.21498L10.6657 6.01798C9.09067 4.60598 6.67567 4.66798 5.17167 6.17198C3.68167 7.66198 3.60667 10.047 4.97967 11.623L11.9997 18.654L19.0197 11.624C20.3937 10.047 20.3187 7.66498 18.8267 6.16998Z" fill="black"/>
</g>
<defs>
<clipPath id="clip0_1_964">
<rect width="24" height="24" fill="white"/>
</clipPath>
</defs>
</svg>
