<svg width="43" height="13" viewBox="0 0 43 13" fill="none" xmlns="http://www.w3.org/2000/svg">
<path d="M6.33 0.625V12H3.99406V0.625H6.33ZM9.83 0.625V2.46094H0.54875V0.625H9.83ZM20.0787 10.1719V12H14.0241V10.1719H20.0787ZM14.7897 0.625V12H12.4459V0.625H14.7897ZM19.2897 5.25781V7.03906H14.0241V5.25781H19.2897ZM20.0709 0.625V2.46094H14.0241V0.625H20.0709ZM28.6478 9.02344C28.6478 8.82031 28.6166 8.63802 28.5541 8.47656C28.4968 8.3099 28.3874 8.15885 28.2259 8.02344C28.0645 7.88281 27.8379 7.74479 27.5462 7.60938C27.2546 7.47396 26.877 7.33333 26.4134 7.1875C25.8978 7.02083 25.4082 6.83333 24.9447 6.625C24.4864 6.41667 24.0801 6.17448 23.7259 5.89844C23.377 5.61719 23.1009 5.29167 22.8978 4.92188C22.6999 4.55208 22.6009 4.1224 22.6009 3.63281C22.6009 3.15885 22.7051 2.72917 22.9134 2.34375C23.1218 1.95312 23.4134 1.61979 23.7884 1.34375C24.1634 1.0625 24.6061 0.846354 25.1166 0.695312C25.6322 0.544271 26.1973 0.46875 26.8119 0.46875C27.6504 0.46875 28.3822 0.619792 29.0072 0.921875C29.6322 1.22396 30.1166 1.63802 30.4603 2.16406C30.8093 2.6901 30.9837 3.29167 30.9837 3.96875H28.6556C28.6556 3.63542 28.5853 3.34375 28.4447 3.09375C28.3093 2.83854 28.1009 2.63802 27.8197 2.49219C27.5436 2.34635 27.1947 2.27344 26.7728 2.27344C26.3666 2.27344 26.028 2.33594 25.7572 2.46094C25.4864 2.58073 25.2832 2.74479 25.1478 2.95312C25.0124 3.15625 24.9447 3.38542 24.9447 3.64062C24.9447 3.83333 24.9916 4.00781 25.0853 4.16406C25.1843 4.32031 25.3301 4.46615 25.5228 4.60156C25.7155 4.73698 25.9525 4.86458 26.2337 4.98438C26.515 5.10417 26.8405 5.22135 27.2103 5.33594C27.8301 5.52344 28.3744 5.73438 28.8431 5.96875C29.3171 6.20312 29.7129 6.46615 30.0306 6.75781C30.3483 7.04948 30.5879 7.38021 30.7494 7.75C30.9108 8.11979 30.9916 8.53906 30.9916 9.00781C30.9916 9.5026 30.8952 9.94531 30.7025 10.3359C30.5098 10.7266 30.2311 11.0573 29.8666 11.3281C29.502 11.599 29.0671 11.8047 28.5619 11.9453C28.0567 12.0859 27.4916 12.1562 26.8666 12.1562C26.3041 12.1562 25.7494 12.0833 25.2025 11.9375C24.6556 11.7865 24.1582 11.5599 23.7103 11.2578C23.2676 10.9557 22.9134 10.5703 22.6478 10.1016C22.3822 9.63281 22.2494 9.07812 22.2494 8.4375H24.6009C24.6009 8.79167 24.6556 9.09115 24.765 9.33594C24.8744 9.58073 25.028 9.77865 25.2259 9.92969C25.4291 10.0807 25.6686 10.1901 25.9447 10.2578C26.2259 10.3255 26.5332 10.3594 26.8666 10.3594C27.2728 10.3594 27.6061 10.3021 27.8666 10.1875C28.1322 10.0729 28.3275 9.91406 28.4525 9.71094C28.5827 9.50781 28.6478 9.27865 28.6478 9.02344ZM38.9512 0.625V12H36.6153V0.625H38.9512ZM42.4512 0.625V2.46094H33.17V0.625H42.4512Z" fill="black"/>
</svg>
