<svg width="19" height="19" viewBox="0 0 19 19" fill="none" xmlns="http://www.w3.org/2000/svg">
<g clip-path="url(#clip0_1_924)">
<path d="M15.8333 17.4166H14.25V15.8333C14.25 15.2034 13.9998 14.5993 13.5544 14.1539C13.109 13.7085 12.5049 13.4583 11.875 13.4583H7.12499C6.4951 13.4583 5.89101 13.7085 5.44561 14.1539C5.00021 14.5993 4.74999 15.2034 4.74999 15.8333V17.4166H3.16666V15.8333C3.16666 14.7835 3.58369 13.7767 4.32603 13.0343C5.06836 12.292 6.07517 11.875 7.12499 11.875H11.875C12.9248 11.875 13.9316 12.292 14.674 13.0343C15.4163 13.7767 15.8333 14.7835 15.8333 15.8333V17.4166ZM9.49999 10.2916C8.87621 10.2916 8.25854 10.1688 7.68224 9.93005C7.10595 9.69134 6.58231 9.34146 6.14123 8.90038C5.70015 8.45931 5.35027 7.93567 5.11156 7.35937C4.87285 6.78308 4.74999 6.16541 4.74999 5.54163C4.74999 4.91785 4.87285 4.30018 5.11156 3.72388C5.35027 3.14758 5.70015 2.62395 6.14123 2.18287C6.58231 1.74179 7.10595 1.39191 7.68224 1.1532C8.25854 0.914488 8.87621 0.791626 9.49999 0.791626C10.7598 0.791626 11.9679 1.29207 12.8587 2.18287C13.7495 3.07367 14.25 4.28185 14.25 5.54163C14.25 6.8014 13.7495 8.00959 12.8587 8.90038C11.9679 9.79118 10.7598 10.2916 9.49999 10.2916ZM9.49999 8.70829C10.3398 8.70829 11.1453 8.37466 11.7392 7.7808C12.333 7.18693 12.6667 6.38148 12.6667 5.54163C12.6667 4.70177 12.333 3.89632 11.7392 3.30245C11.1453 2.70859 10.3398 2.37496 9.49999 2.37496C8.66014 2.37496 7.85468 2.70859 7.26082 3.30245C6.66695 3.89632 6.33332 4.70177 6.33332 5.54163C6.33332 6.38148 6.66695 7.18693 7.26082 7.7808C7.85468 8.37466 8.66014 8.70829 9.49999 8.70829Z" fill="black"/>
</g>
<defs>
<clipPath id="clip0_1_924">
<rect width="19" height="19" fill="white"/>
</clipPath>
</defs>
</svg>
